<svg width="200" height="200" version="1.1" viewBox="0 0 52.916 52.917" xmlns="http://www.w3.org/2000/svg" xmlns:xlink="http://www.w3.org/1999/xlink">
  <defs>
    <filter id="filter9644" x="-.00080519" y="-.00080519" width="1.0016" height="1.0016" color-interpolation-filters="sRGB">
      <feTurbulence baseFrequency="0.039 0.021000000000000001" numOctaves="3" result="result91" seed="819"/>
      <feDisplacementMap in2="result91" scale="5"/>
      <feColorMatrix result="result5" values="1 0 0 0 0 0 1 0 0 0 0 0 1 0 0 0 0 0 3 -1 "/>
      <feComposite in="SourceGraphic" in2="result5" operator="in" result="result6"/>
      <feTurbulence baseFrequency="0.03 0.1" numOctaves="5" result="result92" type="fractalNoise"/>
      <feDisplacementMap in="result6" in2="result92" result="result4" scale="4" xChannelSelector="R"/>
      <feComposite in="result4" in2="result4" operator="in" result="result2"/>
      <feComposite in="result2" in2="result2" result="result93"/>
      <feBlend in2="result93" mode="multiply"/>
      <feGaussianBlur stdDeviation="0.063745123"/>
    </filter>
    <radialGradient id="radialGradient9652" cx="26.458" cy="26.458" r="26.458" gradientTransform="matrix(.77022 -.81704 .86161 .81224 -301.09 -51.773)" gradientUnits="userSpaceOnUse">
      <stop stop-color="#808fc1" offset="0"/>
      <stop stop-color="#263a81" offset="1"/>
    </radialGradient>
  </defs>
  <rect x="-.0002735" width="52.917" height="52.917" rx="2.6458" ry="2.6458" fill="url(#radialGradient9652)" style="mix-blend-mode:normal"/>
  <rect transform="matrix(.9688 0 0 .9688 1.0628 1.0628)" x="-.0002735" width="52.917" height="52.917" rx="2.6458" ry="2.6458" fill="#7a4f4f" filter="url(#filter9644)" opacity=".99692" style="mix-blend-mode:normal"/>
  <path transform="matrix(.26458 0 0 .26458 -.0002735 0)" d="m17.178 4.998c-6.7053 0-12.18 5.4744-12.18 12.18v165.64c0 6.7053 5.4744 12.182 12.18 12.182h165.64c6.7053 0 12.18-5.4763 12.18-12.182v-165.64c0-6.7053-5.4744-12.18-12.18-12.18h-165.64zm0 4.8711h165.64c4.0906 0 7.3086 3.218 7.3086 7.3086v165.64c0 4.0906-3.218 7.3086-7.3086 7.3086h-165.64c-4.0906 0-7.3066-3.218-7.3066-7.3086v-165.64c0-4.0906 3.216-7.3086 7.3066-7.3086zm38.293 35.344c-2.7051 0.030228-4.8599 0.21998-5.2676 0.5-0.85368 0.58659-3.6677 6.9569-15.203 34.398-1.208 2.8734-4.1752 10.352-6.5938 16.621-2.4185 6.2687-5.4098 13.75-6.6484 16.623-1.0479 2.4404-1.707 6.7254-1.5703 10.564l14.264-0.66992 16.266-0.67188-0.095703 7.9746c-0.13319 11.208-0.58043 12.345-5.8594 14.877-4.1585 1.995-5.4206 3.7239-3.8594 5.2852 0.34822 0.34829 10.164 0.63282 21.812 0.63282 19.967 0 21.235-0.10389 22.162-1.8359h0.001953c1.5575-2.9104 1.2001-3.6422-2.3398-4.8106-5.1431-1.6973-6.1758-3.9601-6.1758-13.512 0-5.9767 0.33623-8.3665 1.1875-8.4473 4.3653-0.41392 7.1901 2.038 7.9707 6.9199 0.42328 2.6473 1.0442 3.6387 2.2812 3.6387 0.93531 0 2.3788 0.26114 3.2051 0.57813 1.3307 0.51048 1.502-1.1265 1.502-14.309v-14.885l-3.0254 0.29883c-2.4511 0.24124-3.1665 0.83775-3.7793 3.1465-0.9305 3.5054-3.1494 5.2246-6.7422 5.2246h-2.7363l0.58789-24.221c0.32449-13.38 0.21991-24.221-0.23242-24.221-0.45017 0-6.1326 7.3156-12.629 16.256l-11.811 16.254-1.8984 16.406-8.7871 0.27344c-4.8324 0.15021-8.7852-0.00488-8.7852-0.34375 0-0.7966 7.7614-13.688 17.834-29.621 9.3542-13.647 14.961-22.499 23.289-35.131 2.4057-2.6432 1.8219-3.0007-3.0742-3.3789-8.4454-0.39432-5.9238-0.37769-15.25-0.41602zm85.354 0.79102c-6.8739-0.010508-10.489-0.045857-17.916 2.6094-20.686 9.4274-13.69 37.188 4.2598 34.875 6.3466-0.95168 9.7158-4.7262 10.135-11.357 0.90035-5.0596-4.4063-11.203-12.018-10.865-2.8778 0.17939-5.2293 0.037344-5.2285-0.31445 6.8e-4 -0.35174 1.1197-1.9712 2.4883-3.5977 3.5673-4.2393 8.3182-5.9887 14.133-5.2031 13.007 2.5711 14.993 8.932 15.482 19.477 0.54028 12.895-0.44054 15.118-7.9043 17.91-2.9003 1.0851-5.9 1.9727-6.6641 1.9727-0.95434 0-1.3887 1.0403-1.3887 3.3242 1e-5 2.9267 0.29029 3.3242 2.4141 3.3242 3.7295 0 9.8099 3.5485 11.869 6.9258 4.283 7.2353 2.5729 29.777-3.4824 37.834-2.7129 2.6294-4.0237 3.146-8.916 3.5-7.4049 0.53561-13.591-1.2398-17.646-5.0644-3.4984-3.2995-4.4019-5.9548-1.5723-4.6211 2.7714 1.3065 9.2528 0.72914 11.996-1.0684 3.5648-2.3356 5.3379-6.1849 5.3379-11.59 0-9.0483-5.4696-14.513-14.531-14.516-2.5072-8.2e-4 -5.769 0.62385-7.248 1.3887-11.553 5.9739-12.013 24.828-0.83594 34.232 10.833 9.1164 30.847 12.308 44.693 7.127 7.4002-2.7689 14.184-9.1122 17.973-16.809 2.5665-5.2132 3.1292-7.5657 3.4434-14.424 0.34642-7.5675 0.16527-8.5935-2.3613-13.418-2.1259-4.0591-3.8341-5.8603-7.6562-8.0742-5.7809-3.3487-6.5891-6.2311-2.3691-8.4414 3.7769-1.9784 8.4612-7.1582 10.162-11.236 2.0594-4.9368 1.8937-13.297-0.34766-17.639-5.625-10.893-17.479-16.215-36.301-16.26v-0.001953z" color="#000000" color-rendering="auto" dominant-baseline="auto" fill="#fefefe" image-rendering="auto" shape-rendering="auto" solid-color="#000000" stop-color="#000000" style="font-feature-settings:normal;font-variant-alternates:normal;font-variant-caps:normal;font-variant-east-asian:normal;font-variant-ligatures:normal;font-variant-numeric:normal;font-variant-position:normal;font-variation-settings:normal;inline-size:0;isolation:auto;mix-blend-mode:normal;shape-margin:0;shape-padding:0;text-decoration-color:#000000;text-decoration-line:none;text-decoration-style:solid;text-indent:0;text-orientation:mixed;text-transform:none;white-space:normal"/>
  <path transform="matrix(.26458 0 0 .26458 -.0002735 0)" d="m17.178 4.998c-6.7053 0-12.18 5.4744-12.18 12.18v165.64c0 6.7053 5.4744 12.182 12.18 12.182h165.64c6.7053 0 12.18-5.4763 12.18-12.182v-165.64c0-6.7053-5.4744-12.18-12.18-12.18h-165.64zm0 4.8711h165.64c4.0906 0 7.3086 3.218 7.3086 7.3086v165.64c0 4.0906-3.218 7.3086-7.3086 7.3086h-165.64c-4.0906 0-7.3066-3.218-7.3066-7.3086v-165.64c0-4.0906 3.216-7.3086 7.3066-7.3086zm38.293 35.344c-2.7051 0.030228-4.8599 0.21998-5.2676 0.5-0.85368 0.58659-3.6677 6.9569-15.203 34.398-1.208 2.8734-4.1752 10.352-6.5938 16.621-2.4185 6.2687-5.4098 13.75-6.6484 16.623-1.0479 2.4404-1.707 6.7254-1.5703 10.564l14.264-0.66992 16.266-0.67188-0.095703 7.9746c-0.13319 11.208-0.58043 12.345-5.8594 14.877-4.1585 1.995-5.4206 3.7239-3.8594 5.2852 0.34822 0.34829 10.164 0.63282 21.812 0.63282 19.967 0 21.235-0.10389 22.162-1.8359h0.001953c1.5575-2.9104 1.2001-3.6422-2.3398-4.8106-5.1431-1.6973-6.1758-3.9601-6.1758-13.512 0-5.9767 0.33623-8.3665 1.1875-8.4473 4.3653-0.41392 7.1901 2.038 7.9707 6.9199 0.42328 2.6473 1.0442 3.6387 2.2812 3.6387 0.93531 0 2.3788 0.26114 3.2051 0.57813 1.3307 0.51048 1.502-1.1265 1.502-14.309v-14.885l-3.0254 0.29883c-2.4511 0.24124-3.1665 0.83775-3.7793 3.1465-0.9305 3.5054-3.1494 5.2246-6.7422 5.2246h-2.7363l0.58789-24.221c0.32449-13.38 0.21991-24.221-0.23242-24.221-0.45017 0-6.1326 7.3156-12.629 16.256l-11.811 16.254-1.8984 16.406-8.7871 0.27344c-4.8324 0.15021-8.7852-0.00488-8.7852-0.34375 0-0.7966 7.7614-13.688 17.834-29.621 9.3542-13.647 14.961-22.499 23.289-35.131 2.4057-2.6432 1.8219-3.0007-3.0742-3.3789-8.4454-0.39432-5.9238-0.37769-15.25-0.41602zm85.354 0.79102c-6.8739-0.010508-10.489-0.045857-17.916 2.6094-20.686 9.4274-13.69 37.188 4.2598 34.875 6.3466-0.95168 9.7158-4.7262 10.135-11.357 0.90035-5.0596-4.4063-11.203-12.018-10.865-2.8778 0.17939-5.2293 0.037344-5.2285-0.31445 6.8e-4 -0.35174 1.1197-1.9712 2.4883-3.5977 3.5673-4.2393 8.3182-5.9887 14.133-5.2031 13.007 2.5711 14.993 8.932 15.482 19.477 0.54028 12.895-0.44054 15.118-7.9043 17.91-2.9003 1.0851-5.9 1.9727-6.6641 1.9727-0.95434 0-1.3887 1.0403-1.3887 3.3242 1e-5 2.9267 0.29029 3.3242 2.4141 3.3242 3.7295 0 9.8099 3.5485 11.869 6.9258 4.283 7.2353 2.5729 29.777-3.4824 37.834-2.7129 2.6294-4.0237 3.146-8.916 3.5-7.4049 0.53561-13.591-1.2398-17.646-5.0644-3.4984-3.2995-4.4019-5.9548-1.5723-4.6211 2.7714 1.3065 9.2528 0.72914 11.996-1.0684 3.5648-2.3356 5.3379-6.1849 5.3379-11.59 0-9.0483-5.4696-14.513-14.531-14.516-2.5072-8.2e-4 -5.769 0.62385-7.248 1.3887-11.553 5.9739-12.013 24.828-0.83594 34.232 10.833 9.1164 30.847 12.308 44.693 7.127 7.4002-2.7689 14.184-9.1122 17.973-16.809 2.5665-5.2132 3.1292-7.5657 3.4434-14.424 0.34642-7.5675 0.16527-8.5935-2.3613-13.418-2.1259-4.0591-3.8341-5.8603-7.6562-8.0742-5.7809-3.3487-6.5891-6.2311-2.3691-8.4414 3.7769-1.9784 8.4612-7.1582 10.162-11.236 2.0594-4.9368 1.8937-13.297-0.34766-17.639-5.625-10.893-17.479-16.215-36.301-16.26v-0.001953z" color="#000000" color-rendering="auto" dominant-baseline="auto" fill="#6a1616" fill-opacity=".5" filter="url(#filter9644)" image-rendering="auto" shape-rendering="auto" solid-color="#000000" stop-color="#000000" style="font-feature-settings:normal;font-variant-alternates:normal;font-variant-caps:normal;font-variant-east-asian:normal;font-variant-ligatures:normal;font-variant-numeric:normal;font-variant-position:normal;font-variation-settings:normal;inline-size:0;isolation:auto;mix-blend-mode:normal;shape-margin:0;shape-padding:0;text-decoration-color:#000000;text-decoration-line:none;text-decoration-style:solid;text-indent:0;text-orientation:mixed;text-transform:none;white-space:normal"/>
</svg>
