<svg width="210mm" height="297mm" version="1.1" viewBox="0 0 210 297" xmlns="http://www.w3.org/2000/svg" xmlns:xlink="http://www.w3.org/1999/xlink">
  <defs>
    <radialGradient id="radialGradient3112" cx="149.65" cy="242.41" r="31.681" gradientTransform="matrix(-.015076 .66256 -.7708 -.017539 227.85 -69.826)" gradientUnits="userSpaceOnUse">
      <stop stop-color="#fff" offset="0"/>
      <stop stop-color="#f5f5f5" offset="1"/>
    </radialGradient>
    <radialGradient id="radialGradient3120" cx="150.07" cy="242.48" r="31.681" gradientTransform="matrix(1.1257 .010233 -.0050778 .55861 -129.69 -111.19)" gradientUnits="userSpaceOnUse">
      <stop stop-color="#8d9ac7" offset="0"/>
      <stop stop-color="#203086" offset="1"/>
    </radialGradient>
    <linearGradient id="linearGradient3130" x1="180.88" x2="119.91" y1="263.35" y2="222.76" gradientTransform="translate(-112.06 -216.68)" gradientUnits="userSpaceOnUse">
      <stop offset="0"/>
      <stop stop-color="#d0d0d0" stop-opacity="0" offset="1"/>
    </linearGradient>
    <filter id="filter3578" color-interpolation-filters="sRGB">
      <feFlood flood-color="rgb(0,0,0)" flood-opacity=".49804" result="flood"/>
      <feComposite in="flood" in2="SourceGraphic" operator="out" result="composite1"/>
      <feGaussianBlur in="composite1" result="blur" stdDeviation="3.2"/>
      <feOffset dx="5.08982" dy="6" result="offset"/>
      <feComposite in="offset" in2="SourceGraphic" operator="atop" result="fbSourceGraphic"/>
      <feColorMatrix in="fbSourceGraphic" result="fbSourceGraphicAlpha" values="0 0 0 -1 0 0 0 0 -1 0 0 0 0 -1 0 0 0 0 1 0"/>
      <feFlood flood-color="rgb(19,29,114)" flood-opacity=".38039" in="fbSourceGraphic" result="flood"/>
      <feComposite in="flood" in2="fbSourceGraphic" operator="out" result="composite1"/>
      <feGaussianBlur in="composite1" result="blur" stdDeviation="3.2"/>
      <feOffset dx="5.1" dy="6" result="offset"/>
      <feComposite in="offset" in2="fbSourceGraphic" operator="atop" result="fbSourceGraphic"/>
      <feColorMatrix in="fbSourceGraphic" result="fbSourceGraphicAlpha" values="0 0 0 -1 0 0 0 0 -1 0 0 0 0 -1 0 0 0 0 1 0"/>
      <feFlood flood-color="rgb(19,29,114)" flood-opacity=".38039" in="fbSourceGraphic" result="flood"/>
      <feComposite in="flood" in2="fbSourceGraphic" operator="out" result="composite1"/>
      <feGaussianBlur in="composite1" result="blur" stdDeviation="3.2"/>
      <feOffset dx="5.1" dy="6" result="offset"/>
      <feComposite in="offset" in2="fbSourceGraphic" operator="atop" result="composite2"/>
    </filter>
  </defs>
  <g>
    <path d="m16.357 4.3-9.9999 9.9999c0.0186 0.94571 5e-3 5.3364 0 7.197 2.4085 0.0499 4.335 2.0166 4.3351 4.4256-7e-5 2.4169-1.9387 4.387-4.3553 4.4261-4e-3 3.037 0.0202 6.9515 0.0202 6.9515l9.9999 9.9999h43.341c4.0954-4.0954 6.5511-6.5511 9.9999-9.9999v-6.9562c-2.3606-0.11182-4.2171-2.0582-4.2173-4.4214-6e-5 -2.3634 1.8565-4.3101 4.2173-4.422v-7.2006l-9.9999-9.9999z" fill="url(#radialGradient3112)" stroke-width=".26458" style="mix-blend-mode:normal"/>
    <path d="m16.357 4.3-9.9999 9.9999c0.0186 0.94571 5e-3 5.3364 0 7.197 2.4085 0.0499 4.335 2.0166 4.3351 4.4256-7e-5 2.4169-1.9387 4.387-4.3553 4.4261-4e-3 3.037 0.0202 6.9515 0.0202 6.9515l9.9999 9.9999h43.341c4.0954-4.0954 6.5511-6.5511 9.9999-9.9999v-6.9562c-2.3606-0.11182-4.2171-2.0582-4.2173-4.4214-6e-5 -2.3634 1.8565-4.3101 4.2173-4.422v-7.2006l-9.9999-9.9999zm1.7689 1.2769h39.801c0.23725-2.6e-4 0.46519 0.0923 0.6351 0.25787 2.8956 2.8329 6.2485 6.1131 9.1834 8.9845 0.17455 0.17068 0.27307 0.40441 0.27337 0.64854l-2e-3 4.8824c-0.17669 0.30035-0.40119 0.53504-0.88907 0.84237-0.56178 0.21348-1.5707 0.73919-2.304 1.7223-0.73333 0.98314-1.2072 2.2511-1.2072 2.9941 6e-5 0.74295 0.47384 2.0131 1.2072 2.9962 0.73332 0.98307 1.7904 1.4188 2.272 1.7122 0 0 0.6812 0.39091 0.92108 0.85194l2e-3 4.6622c-3e-4 0.24413-0.0988 0.47786-0.27337 0.64854-3.167 3.0984-5.4227 5.3052-9.1834 8.9845-0.16967 0.16614-0.39763 0.25926-0.6351 0.25941h-39.801c-0.23729-2.9e-4 -0.46505-0.0934-0.63459-0.25941l-9.1819-8.9845c-0.17126-0.1674-0.26951-0.39565-0.27337-0.6351 0 0-0.0226-1.4088-0.0196-4.1424 0.29456-0.53007 0.37583-0.63995 0.89452-0.90796 0.51821-0.26776 1.4171-0.68165 2.0609-1.7932 0.64372-1.1115 1.0449-2.5552 1.0449-3.3926-5e-5 -0.83461-0.34834-2.306-1.0392-3.3869-0.75379-1.1794-1.0884-1.2418-2.0526-1.7968-0.49383-0.35026-0.48114-0.41402-0.88884-0.90796 7e-5 -2.224 0.015-2.0774 0-4.3439-1e-3 -0.2461 0.0974-0.48218 0.27337-0.65423l9.1819-8.9845c0.16979-0.16545 0.39752-0.25799 0.63459-0.25787zm0.37103 1.8164-8.6444 8.4568c8e-3 1.476 2e-3 2.085 0 3.4163 1.1338 0.40409 2.0705 1.2592 2.6991 2.3497 0.79685 1.3826 1.2815 2.9632 1.2816 4.2928-3e-5 1.3339-0.48815 2.9192-1.2893 4.3026-0.63161 1.0906-1.5721 1.9434-2.7089 2.344 2e-3 1.8351 0.0128 2.9968 0.0155 3.191l8.6465 8.4594h39.059c3.4599-3.385 5.7124-5.5889 8.6444-8.4574v-3.6856c-0.92427-0.5986-2.1014-1.0902-2.8339-2.0722-0.92564-1.2409-1.5683-2.7018-1.5684-4.0819-4e-5 -1.3803 0.64273-2.8394 1.5684-4.0804 0.73252-0.98206 1.7176-1.7136 2.8339-2.0722v-3.9062c-2.7853-2.7249-5.8946-5.7666-8.6444-8.4568zm6.9531 3.2184v5.1e-4c0.25117-3e-3 0.51935-8.1e-4 0.7922 7e-3l1.9844 0.0568c-1.9844-0.0569-0.019 0.07 1.4712 0.0522 1.3676 0.0301 1.5264 0.20475 0.85628 0.94103-2.3199 3.5186-3.8818 5.9845-6.4875 9.786-2.8058 4.4382-4.9677 8.0298-4.9677 8.2517 0 0.0944 1.1013 0.13744 2.4474 0.0956l2.4474-0.0765 0.26458-2.2846 0.26458-2.2851 3.2897-4.5279c1.8096-2.4904 3.3927-4.5284 3.5181-4.5284 0.126 0 0.15499 3.0198 0.0646 6.7469l-0.16381 6.7469h0.76223c1.0008 0 1.6192-0.47874 1.8784-1.4552 0.17071-0.64312 0.36981-0.80923 1.0526-0.87643l0.84284-0.0832v4.1465c0 3.672-0.0479 4.1275-0.41857 3.9853-0.23018-0.0883-0.63192-0.16071-0.89246-0.16071-0.34459 0-0.51771-0.27598-0.63562-1.0134-0.21745-1.3599-1.0045-2.0433-2.2205-1.928-0.23713 0.0225-0.33073 0.68854-0.33073 2.3534 0 2.6607 0.28764 3.2908 1.7203 3.7636 0.98608 0.32544 1.0855 0.52929 0.65164 1.34h-5.2e-4c-0.25822 0.48248-0.61118 0.51159-6.1733 0.51159-3.2448 0-5.9791-0.0792-6.0761-0.17621-0.4349-0.43489-0.0835-0.91656 1.0749-1.4723 1.4705-0.70543 1.5954-1.0224 1.6325-4.1444l0.0263-2.2211-4.5305 0.18707-4.5305 0.18655 0.18345-0.74362c0.10092-0.4091 0.46577-1.399 0.8108-2.1994 0.34503-0.80037 1.1784-2.884 1.8521-4.6302s1.5001-3.8298 1.8366-4.6302c3.2133-7.6441 3.9976-9.4184 4.2354-9.5818 0.11355-0.078 0.71358-0.1311 1.4671-0.13952zm23.776 0.22117v5.2e-4c5.2431 0.0126 8.5451 1.4945 10.112 4.5289 0.62435 1.2094 0.67025 3.5387 0.0966 4.9139-0.4738 1.136-1.7787 2.5784-2.8308 3.1295-1.1755 0.61571-0.95041 1.419 0.65991 2.3518 1.0647 0.61672 1.5405 1.1183 2.1327 2.249 0.70381 1.3439 0.75434 1.6298 0.65784 3.7378-0.0875 1.9104-0.2442 2.5656-0.95912 4.0178-1.0554 2.1439-2.945 3.9111-5.0064 4.6824-3.8571 1.4431-9.4324 0.55407-12.45-1.9854-3.1134-2.6198-2.985-7.8717 0.23306-9.5358 0.412-0.21305 1.3206-0.38729 2.019-0.38706 2.5242 7.9e-4 4.0478 1.5232 4.0478 4.0437 0 1.5056-0.49369 2.5776-1.4867 3.2282-0.76417 0.50071-2.5699 0.66158-3.3419 0.29765-0.78821-0.37153-0.53629 0.3682 0.43821 1.2873 1.1297 1.0654 2.8528 1.56 4.9155 1.4108 1.3628-0.0986 1.7279-0.24218 2.4836-0.97461 1.2189-1.1814 1.4898-2.3234 1.4888-6.2813-7.9e-4 -2.9172-0.0757-3.5314-0.51883-4.2581-0.57363-0.94078-2.2674-1.9291-3.3063-1.9291-0.5916 0-0.67231-0.11079-0.67231-0.92604 0-0.63621 0.12122-0.92605 0.38706-0.92605 0.21283 0 1.0483-0.24705 1.8562-0.54932 2.0791-0.77791 2.3524-1.3973 2.2019-4.9894-0.13634-2.9373-0.68956-4.7088-4.3129-5.425-1.6197-0.21882-2.943 0.26861-3.9367 1.4495-0.38122 0.45306-0.6933 0.90402-0.69349 1.002-2.1e-4 0.098 0.65515 0.13727 1.4568 0.0873 2.1202-0.0941 3.5984 1.6173 3.3476 3.0267-0.11672 1.8472-1.0552 2.8985-2.8231 3.1636-5.0002 0.6442-6.9494-7.0885-1.187-9.7146 0.97194-0.50481 1.6914-0.63499 3.9176-0.709 0.36686-0.0122 0.72481-0.0184 1.0744-0.0176z" fill="url(#radialGradient3120)" filter="url(#filter3578)" stroke="url(#linearGradient3130)" stroke-width=".2"/>
  </g>
</svg>
